<svg viewBox="0 0 16 16" fill="#000000" xmlns="http://www.w3.org/2000/svg" id="Wechat-Channels-Line--Streamline-Remix" height="16" width="16">
  <desc>
    Wechat Channels Line Streamline Icon: https://streamlinehq.com
  </desc>
  <path d="M4.440466666666667 12.642733333333332c-0.027953333333333334 -0.03293333333333333 -0.06292 -0.07846666666666666 -0.10413333333333333 -0.13973333333333332 -0.15853333333333333 -0.23573333333333335 -0.34287333333333336 -0.6035333333333333 -0.5361 -1.0847333333333333 -0.38338666666666665 -0.9547999999999999 -0.75906 -2.248133333333333 -1.0241266666666666 -3.551133333333333 -0.2664933333333333 -1.3100933333333333 -0.41059333333333337 -2.5788333333333333 -0.3578133333333333 -3.4954733333333334 0.02686 -0.4664 0.10168666666666666 -0.77464 0.18807333333333334 -0.9446399999999999 0.019533333333333333 -0.03843333333333333 0.03665333333333333 -0.06364 0.04918 -0.07924666666666666 0.005319999999999999 -0.006619999999999999 0.00964 -0.011293333333333332 0.01278 -0.014439999999999998 0.19446666666666668 0.0005533333333333333 0.49268 0.10790666666666666 0.9038333333333333 0.43398666666666663 0.4000866666666667 0.31731333333333334 0.83344 0.783 1.28478 1.3546533333333333C5.680619999999999 6.16522 6.49912 7.4764 7.2246 8.672666666666666c-0.1196 0.21006666666666665 -0.24633333333333332 0.43966666666666665 -0.3765333333333333 0.6757333333333333 -0.061066666666666665 0.11066666666666666 -0.12293333333333334 0.2228 -0.18520666666666666 0.33499999999999996 -0.2794333333333333 0.5033333333333333 -0.5760666666666666 1.0243333333333333 -0.883 1.4964666666666666 -0.3100333333333333 0.477 -0.61212 0.8749333333333333 -0.8955933333333334 1.1470666666666665 -0.20039333333333334 0.19226666666666664 -0.3473266666666666 0.27926666666666666 -0.4438 0.31579999999999997Zm3.5596666666666668 -5.2585999999999995c-0.6414 -1.0417733333333332 -1.3617866666666665 -2.15756 -2.096713333333333 -3.0883933333333333C5.422533333333334 3.6866666666666665 4.91588 3.1312599999999997 4.4006799999999995 2.7226533333333336 3.8975999999999997 2.3236666666666665 3.305733333333333 2 2.6668266666666662 2c-0.6151466666666666 0 -1.0238466666666666 0.37968 -1.24912 0.8229799999999999 -0.21004 0.41333333333333333 -0.2998133333333333 0.9384266666666666 -0.33053999999999994 1.4720266666666666 -0.06238666666666666 1.0833599999999999 0.10640666666666666 2.48126 0.38236666666666663 3.8378599999999996 0.27738666666666667 1.3636666666666666 0.6737133333333333 2.737 1.0933866666666665 3.7822 0.20829999999999999 0.5187999999999999 0.4332533333333333 0.9843333333333333 0.66696 1.3319333333333332 0.11608666666666667 0.17266666666666666 0.2514733333333333 0.34219999999999995 0.40861333333333333 0.4752666666666666 0.15041333333333332 0.12739999999999999 0.38800666666666667 0.27773333333333333 0.6949933333333332 0.27773333333333333 0.5963266666666667 0 1.0984266666666667 -0.3506 1.4740466666666665 -0.7111333333333333 0.39235333333333333 -0.37659999999999993 0.7595999999999999 -0.8736666666666666 1.0901999999999998 -1.3822666666666665 0.3337333333333333 -0.5134 0.6491333333333333 -1.0685333333333333 0.9308666666666667 -1.5760666666666667 0.057 -0.10266666666666666 0.11233333333333334 -0.2028 0.16599999999999998 -0.30006666666666665 0.005399999999999999 0.009933333333333332 0.010733333333333333 0.019999999999999997 0.016133333333333333 0.03 0.0456 0.08526666666666667 0.09246666666666666 0.17266666666666666 0.14053333333333332 0.26213333333333333 0.2722 0.5064666666666666 0.5773999999999999 1.0632 0.9047333333333333 1.5782 0.3243333333333333 0.5104 0.6900666666666666 1.0116 1.0923333333333334 1.3916666666666666 0.39273333333333327 0.37106666666666666 0.9059999999999999 0.7075333333333332 1.5184666666666664 0.7075333333333332 0.307 0 0.5446 -0.15033333333333332 0.695 -0.27773333333333333 0.15713333333333332 -0.13306666666666667 0.2925333333333333 -0.3026 0.40859999999999996 -0.4752666666666666 0.23373333333333335 -0.3475333333333333 0.4586666666666666 -0.8131333333333333 0.6669999999999999 -1.3319333333333332 0.41966666666666663 -1.0451333333333332 0.8160666666666666 -2.4185333333333334 1.0934666666666666 -3.7822 0.2759333333333333 -1.3565333333333334 0.4448 -2.754493333333333 0.38239999999999996 -3.8378533333333333 -0.030733333333333335 -0.5336066666666666 -0.12046666666666667 -1.0587 -0.33053333333333335 -1.4720333333333333C14.357466666666667 2.3796666666666666 13.948733333333333 2 13.333599999999999 2c-0.6389333333333334 0 -1.2308 0.32365333333333335 -1.7339333333333333 0.7226466666666667 -0.5152 0.40859999999999996 -1.0218666666666665 0.9640066666666667 -1.5028 1.5730866666666667 -0.7349333333333333 0.9308333333333333 -1.4553333333333331 2.0466266666666666 -2.096733333333333 3.0884Zm0.7746666666666666 1.2899333333333334c0.7257333333333333 -1.1966666666666665 1.5445333333333333 -2.50844 2.368533333333333 -3.5520866666666664 0.4514 -0.5716466666666666 0.8847333333333333 -1.03734 1.2848666666666666 -1.3546466666666666 0.41113333333333335 -0.32608666666666664 0.7094 -0.4334533333333333 0.9039333333333334 -0.434 0.0031333333333333335 0.0031399999999999996 0.0074 0.00782 0.012733333333333333 0.014446666666666665 0.012533333333333334 0.0156 0.029666666666666664 0.040806666666666665 0.0492 0.07923999999999999 0.08639999999999999 0.16999333333333333 0.16119999999999998 0.47824 0.18806666666666666 0.9446333333333332 0.0528 0.9166399999999999 -0.09133333333333334 2.18538 -0.35786666666666667 3.4954133333333335 -0.2650666666666667 1.3030666666666666 -0.6407333333333333 2.596333333333333 -1.0242 3.5512 -0.19319999999999998 0.48119999999999996 -0.37753333333333333 0.8489333333333333 -0.5360666666666667 1.0847333333333333 -0.04373333333333333 0.065 -0.0804 0.11226666666666665 -0.10919999999999999 0.1456 -0.1156 -0.03433333333333333 -0.2779333333333333 -0.12426666666666666 -0.49079999999999996 -0.3253333333333333 -0.28426666666666667 -0.2685333333333333 -0.5807333333333333 -0.6624 -0.8827333333333334 -1.1376 -0.29906666666666665 -0.47059999999999996 -0.5844666666666667 -0.99 -0.8556 -1.494333333333333 -0.04473333333333333 -0.08326666666666666 -0.08933333333333333 -0.1665333333333333 -0.1336 -0.24933333333333332 -0.14326666666666665 -0.2675333333333333 -0.2836666666666666 -0.5297999999999999 -0.4172666666666667 -0.7679333333333332Z" stroke-width="0.6667"></path>
</svg>