<?xml version="1.0" encoding="UTF-8" standalone="no"?>
<svg
   width="833.70221pt"
   height="832.5929pt"
   viewBox="0 0 833.70221 832.5929"
   version="1.1"
   id="svg9"
   sodipodi:docname="logo.svg"
   inkscape:version="1.4 (86a8ad7, 2024-10-11)"
   xmlns:inkscape="http://www.inkscape.org/namespaces/inkscape"
   xmlns:sodipodi="http://sodipodi.sourceforge.net/DTD/sodipodi-0.dtd"
   xmlns="http://www.w3.org/2000/svg"
   xmlns:svg="http://www.w3.org/2000/svg">
  <defs
     id="defs9" />
  <sodipodi:namedview
     id="namedview9"
     pagecolor="#ffffff"
     bordercolor="#000000"
     borderopacity="0.25"
     inkscape:showpageshadow="2"
     inkscape:pageopacity="0.0"
     inkscape:pagecheckerboard="0"
     inkscape:deskcolor="#d1d1d1"
     inkscape:document-units="pt"
     inkscape:zoom="0.36914063"
     inkscape:cx="536.38095"
     inkscape:cy="574.30688"
     inkscape:window-width="2560"
     inkscape:window-height="1418"
     inkscape:window-x="1700"
     inkscape:window-y="-7"
     inkscape:window-maximized="1"
     inkscape:current-layer="svg9" />
  <path
     fill-rule="nonzero"
     fill="rgb(0%, 20.799255%, 33.699036%)"
     fill-opacity="1"
     d="M 758.8485,413.09648 C 759.57897,233.15508 608.35241,74.803516 418.96959,73.131636 233.72741,71.491016 76.965692,219.74883 73.391472,410.06914 69.993032,591.01836 217.00475,757.90508 415.54772,758.94023 601.47741,759.90898 759.89147,605.45195 758.8485,413.09648 M 420.08287,832.57695 C 192.21178,834.48711 -4.8429077,652.37383 0.09069228,404.24492 4.6961623,172.55352 192.48522,-2.0597695 415.80162,0.01835553 665.23131,2.3425745 837.16491,194.94805 833.64928,423.00273 829.95006,662.76055 627.63756,834.49883 420.08287,832.57695"
     id="path1"
     style="fill:#ffffff;fill-opacity:1" />
  <path
     fill-rule="nonzero"
     fill="rgb(0%, 20.399475%, 33.699036%)"
     fill-opacity="1"
     d="m 429.80162,279.16289 c -3.46484,-7.00781 -6.46875,-13.33594 -9.73046,-19.53516 -1.05079,-2 -2.76954,-3.65234 -4.1836,-5.46093 -2.05469,1.76172 -4.80078,3.13281 -6.03906,5.35156 -5.60938,10.03125 -11.30469,20.07031 -16.03906,30.52734 -34.52344,76.22266 -68.79297,152.5625 -103.20703,228.83594 -12.4336,27.56641 -25.03516,55.05469 -37.50782,82.45313 h -88.08203 c 68.63281,-159.88672 137.21485,-319.66016 205.84375,-479.54688 29.54297,0 58.67188,-0.0469 87.79688,0.13281 1.48828,0.008 3.73828,1.61719 4.32812,3.02735 8.69922,20.80859 17.25,41.67968 25.58594,62.63672 0.73047,1.83593 0.50781,4.8789 -0.57422,6.47656 -17.44531,25.74609 -35.09766,51.34375 -52.70312,76.98047 -1.69141,2.46484 -3.35157,4.95703 -5.48829,8.12109"
     id="path2"
     style="fill:#ffffff;fill-opacity:1" />
  <path
     fill-rule="nonzero"
     fill="rgb(0%, 20.399475%, 33.699036%)"
     fill-opacity="1"
     d="m 526.96959,509.7332 c -9.60156,-14.76172 -19.23437,-29.43359 -28.6875,-44.22265 -1.83203,-2.86719 -3.64453,-4.66407 -7.27734,-3.63672 -24.49219,6.91797 -42.28516,-3.875 -57.0625,-21.98438 -3.41016,-4.17968 -6.14063,-9.01172 -8.57031,-13.85156 -1.67578,-3.32812 -3.42188,-4.69141 -7.33594,-4.44531 -16.74219,1.0625 -33.50781,1.74609 -50.26563,2.55859 -1.16796,0.0547 -2.33984,0.008 -3.77734,0.008 7.00391,-15.80078 13.89453,-31.20703 20.66016,-46.66406 2.82422,-6.45312 4.95703,-13.2539 8.25,-19.44531 1.90234,-3.57031 4.97656,-7.125 8.42578,-9.15625 12.98047,-7.64844 26.38672,-14.57422 39.48828,-22.01563 2.33594,-1.32421 4.91406,-3.46484 5.84375,-5.83203 24.125,-61.34765 64.14844,-108.7539 122.42578,-140.21875 4.23828,-2.28906 8.76172,-4.12109 13.30078,-5.75781 8.94922,-3.22656 15.31641,-0.25781 17.64063,8.92578 1.57422,6.20313 2.07031,12.7461 2.47265,19.17578 3.4375,54.80078 -12.50781,105.21485 -35.17187,154.07422 -3.64453,7.85938 -9.58594,15.40625 -10.52735,23.55469 -0.90234,7.80078 3.39063,16.17578 5.26563,24.33203 1.80078,7.85156 3.61719,15.71094 5.00781,23.63672 0.41797,2.37891 0.082,5.34375 -1.01953,7.46094 -12.47656,23.98437 -25.16797,47.85547 -37.82031,71.75 -0.34766,0.66015 -0.88281,1.22656 -1.26563,1.7539"
     id="path3"
     style="fill:#ffffff;fill-opacity:1" />
  <path
     fill-rule="nonzero"
     fill="rgb(0%, 20.399475%, 33.699036%)"
     fill-opacity="1"
     d="m 332.63366,126.65508 c -3.62891,9.57422 -5.63282,17.69531 -9.39454,25.09765 -5.19921,10.22266 -9.97656,16.26172 -20.09765,19.9375 -34.89063,12.66797 -63.5,34.97266 -88.81641,61.64454 -6.375,6.71875 -12.16406,14.08593 -17.57422,21.62109 -9.90625,13.80078 -7.76172,27.79297 6.85157,36.94531 15.35156,9.61328 31.69531,17.64063 47.60937,26.34766 0.85938,0.46875 1.78125,0.82422 2.30469,1.0625 -4.35938,10.10156 -8.61719,19.96875 -13.13281,30.43359 -7.49219,-3.42187 -15.83985,-7.19922 -24.15625,-11.03906 -8.78907,-4.05859 -17.4961,-8.29297 -26.33204,-12.24219 -15.07812,-6.74219 -27.07812,-1.67187 -32.76562,13.84766 -8.21094,22.41797 -11.49609,45.76172 -12.13672,69.47265 -1.01953,37.66016 4.81641,74.03516 21.45703,108.25 0.76172,1.57032 1.19922,4.07422 0.48047,5.47266 -5.67187,11.07031 -11.66016,21.97656 -17.36328,32.57813 C 68.965692,413.87383 124.61412,188.74492 332.63366,126.65508"
     id="path4"
     style="fill:#ffffff;fill-opacity:1" />
  <path
     fill-rule="nonzero"
     fill="rgb(0%, 20.399475%, 33.699036%)"
     fill-opacity="1"
     d="m 432.67662,619.5457 c 1.26563,15.73828 2.96094,30.96094 3.58594,46.23047 0.67969,16.62891 14.28906,22.05078 25.0586,20.40235 42.94921,-6.56641 81.62109,-23.28907 115.57031,-50.45704 4.76172,-3.8125 9.30078,-5.58203 15.28125,-5.17578 12.3125,0.61719 24.05469,1.19532 36.41797,1.76953 -111.5586,111.91797 -297.49219,123.22266 -423.63672,0.3711 4.83203,-0.29297 9.0664,-0.50781 13.29297,-0.82031 8.44922,-0.6211 16.89453,-1.71875 25.34375,-1.73438 3.16797,-0.008 6.78125,1.86328 9.44531,3.87109 28.51562,21.45704 59.57812,37.8125 94.19922,46.83594 9.6914,2.52735 19.73828,3.97656 29.71875,5.0625 12.125,1.32031 20.90234,-7.7539 21.79297,-21.32422 0.58593,-8.86718 1.3164,-17.73047 2.28515,-26.5625 0.1836,-1.65234 1.42188,-3.88672 2.8086,-4.58984 9.32031,-4.72266 18.80859,-9.10156 28.83593,-13.87891"
     id="path5"
     style="fill:#ffffff;fill-opacity:1" />
  <path
     fill-rule="nonzero"
     fill="rgb(100%, 16.899109%, 20.799255%)"
     fill-opacity="1"
     d="m 345.38756,623.38555 c -1.3789,-7.85938 -3.1289,-15.47266 -3.99609,-23.19141 -3.13672,-28.00781 -4.19531,-56.04687 3.01172,-83.62891 5.96093,-22.80078 17.33984,-42.48046 35.82031,-57.65625 5.71875,-4.69531 12.02344,-7.59375 19.47656,-6.37109 2.69141,0.44141 5.875,1.65625 7.58985,3.60938 4.64843,5.29296 8.85937,11.01562 12.80078,16.86718 2.93359,4.35547 6.65234,6.42578 11.77734,7.28516 7.12891,1.19531 14.22656,2.85547 21.15234,4.9375 9.21094,2.76562 14.14844,9.59375 14.80079,19.26562 1.61718,23.98829 -8.51563,43.71875 -23.46485,61.10157 -24.83594,28.875 -56.79297,46.64453 -93.09375,57.05859 -1.51172,0.43359 -3.15234,0.40234 -5.875,0.72266"
     id="path6"
     style="fill:#ffffff;fill-opacity:1" />
  <path
     fill-rule="nonzero"
     fill="rgb(0%, 20.399475%, 33.699036%)"
     fill-opacity="1"
     d="m 605.41881,340.13164 c 5.88672,-11.62109 11.96485,-22.50391 17.00781,-33.84375 8.12891,-18.29687 10.96485,-43.65625 11.91797,-57.69531 0.9375,-13.04688 1.57422,-22.00781 2.30469,-38.78906 40.54688,42.75 67.26563,92.46875 77.71484,150.35156 12.45704,69.03125 1.82422,134.71875 -29.67187,197.55078 -5.98047,-11.72656 -11.74219,-22.72656 -17.11719,-33.91016 -0.75,-1.5625 -0.0273,-4.23047 0.75,-6.07422 14.94531,-35.32031 22.02344,-72.125 20.53516,-110.44921 -0.89453,-23.03125 -2.71875,-45.95704 -10.64844,-67.94141 -5.72656,-15.86328 -17.16406,-21.80469 -32.6875,-15.90234 -11.67187,4.4375 -23.05859,9.6289 -34.57812,14.47656 -1.7461,0.73437 -3.51563,1.41797 -5.52735,2.22656"
     id="path7"
     style="fill:#ffffff;fill-opacity:1" />
  <path
     fill-rule="nonzero"
     fill="rgb(0%, 20.399475%, 33.699036%)"
     fill-opacity="1"
     d="m 580.96569,601.22148 c -10.51563,-22.01171 -21.15235,-44.1875 -31.63672,-66.4375 -0.64453,-1.36718 -0.65235,-3.625 0.0391,-4.94531 15.82813,-30.15625 31.79688,-60.23828 48.00781,-90.85156 24.3125,54.14062 48.51172,108.02344 72.85547,162.23437 z m 0,0"
     id="path8"
     style="fill:#ffffff;fill-opacity:1" />
  <path
     fill-rule="nonzero"
     fill="rgb(0%, 20.399475%, 33.699036%)"
     fill-opacity="1"
     d="m 505.61412,128.56523 c 18.51172,8.08985 37.375,15.89844 55.88282,23.98438 -0.25,0.44531 0.25,-0.44531 0,0 -14.28125,3.3125 -28.9375,7.29297 -43.92188,10.76562 -4.03125,-10.73437 -7.6289,-23.21484 -11.96094,-34.75 0.48829,-0.6289 -0.48828,0.63282 0,0"
     id="path9"
     style="fill:#ffffff;fill-opacity:1" />
</svg>
