<svg viewBox="0 0 500 500" fill="#ff7700" xmlns="http://www.w3.org/2000/svg" id="Wechat-Channels-Line--Streamline-Remix" height="500" width="500">
  <desc>
    Wechat Channels Line Streamline Icon: https://streamlinehq.com
  </desc>
  <path d="M138.76458333333332 395.0854166666666c-0.8735416666666667 -1.0291666666666666 -1.96625 -2.4520833333333334 -3.2541666666666664 -4.366666666666666 -4.954166666666667 -7.366666666666667 -10.714791666666667 -18.860416666666666 -16.753125 -33.89791666666667 -11.980833333333333 -29.837499999999995 -23.720625 -70.25416666666666 -32.00395833333333 -110.97291666666665 -8.327916666666665 -40.940416666666664 -12.831041666666668 -80.58854166666667 -11.181666666666665 -109.23354166666667 0.839375 -14.575 3.177708333333333 -24.2075 5.877291666666667 -29.52 0.6104166666666666 -1.2010416666666666 1.1454166666666665 -1.98875 1.536875 -2.4764583333333334 0.16624999999999998 -0.20687499999999998 0.30125 -0.35291666666666666 0.399375 -0.45124999999999993 6.077083333333333 0.017291666666666667 15.39625 3.3720833333333333 28.244791666666664 13.562083333333332 12.502708333333334 9.916041666666667 26.044999999999998 24.46875 40.149375 42.33291666666666C177.519375 192.663125 203.0975 233.63750000000002 225.76874999999998 271.0208333333333c-3.7375 6.564583333333333 -7.697916666666666 13.739583333333332 -11.766666666666666 21.116666666666667 -1.9083333333333332 3.4583333333333335 -3.841666666666667 6.9624999999999995 -5.787708333333333 10.468749999999998 -8.732291666666667 15.729166666666666 -18.00208333333333 32.010416666666664 -27.59375 46.76458333333333 -9.688541666666666 14.90625 -19.12875 27.341666666666665 -27.987291666666668 35.84583333333333 -6.262291666666667 6.008333333333333 -10.853958333333331 8.727083333333333 -13.868749999999999 9.86875Zm111.23958333333333 -164.33124999999998c-20.04375 -32.555416666666666 -42.555833333333325 -67.42375 -65.52229166666666 -96.51229166666667C169.45416666666668 115.20833333333333 153.62125 97.85187499999999 137.52124999999998 85.08291666666668 121.8 72.61458333333333 103.30416666666666 62.5 83.33833333333332 62.5c-19.223333333333333 0 -31.995208333333334 11.865 -39.035 25.718124999999997 -6.56375 12.916666666666666 -9.369166666666667 29.325833333333332 -10.329374999999999 46.00083333333333 -1.9495833333333332 33.855 3.3252083333333333 77.53937499999999 11.948958333333334 119.93312499999999 8.668333333333333 42.614583333333336 21.053541666666664 85.53125 34.16833333333333 118.19375 6.5093749999999995 16.2125 13.539166666666667 30.760416666666664 20.842499999999998 41.62291666666666 3.627708333333333 5.395833333333333 7.858541666666666 10.69375 12.769166666666667 14.852083333333333 4.7004166666666665 3.9812499999999997 12.125208333333333 8.679166666666667 21.718541666666663 8.679166666666667 18.63520833333333 0 34.32583333333333 -10.95625 46.063958333333325 -22.222916666666666 12.261041666666666 -11.768749999999999 23.737499999999997 -27.302083333333332 34.068749999999994 -43.195833333333326 10.429166666666667 -16.04375 20.285416666666666 -33.391666666666666 29.089583333333334 -49.25208333333333 1.78125 -3.208333333333333 3.5104166666666665 -6.3375 5.1875 -9.377083333333333 0.16874999999999998 0.3104166666666667 0.33541666666666664 0.6249999999999999 0.5041666666666667 0.9374999999999999 1.425 2.6645833333333333 2.889583333333333 5.395833333333333 4.391666666666666 8.191666666666666 8.50625 15.827083333333333 18.04375 33.225 28.272916666666664 49.31875 10.135416666666666 15.949999999999998 21.56458333333333 31.6125 34.135416666666664 43.48958333333333 12.272916666666665 11.595833333333333 28.312499999999996 22.110416666666662 47.45208333333333 22.110416666666662 9.59375 0 17.018749999999997 -4.697916666666667 21.71875 -8.679166666666667 4.910416666666666 -4.158333333333333 9.141666666666667 -9.45625 12.768749999999999 -14.852083333333333 7.304166666666667 -10.860416666666666 14.333333333333332 -25.410416666666666 20.843749999999996 -41.62291666666666 13.114583333333332 -32.66041666666667 25.50208333333333 -75.57916666666667 34.170833333333334 -118.19375 8.622916666666667 -42.391666666666666 13.9 -86.07791666666665 11.95 -119.93291666666666 -0.9604166666666667 -16.67520833333333 -3.764583333333333 -33.084374999999994 -10.329166666666666 -46.001041666666666C448.67083333333335 74.36458333333333 435.8979166666667 62.5 416.67499999999995 62.5c-19.966666666666665 0 -38.4625 10.114166666666666 -54.18541666666667 22.582708333333333 -16.1 12.768749999999999 -31.93333333333333 30.125208333333333 -46.9625 49.15895833333333 -22.966666666666665 29.088541666666664 -45.47916666666666 63.95708333333333 -65.52291666666666 96.51249999999999Zm24.20833333333333 40.31041666666667c22.679166666666667 -37.39583333333333 48.266666666666666 -78.38874999999999 74.01666666666667 -111.00270833333332 14.10625 -17.863958333333333 27.647916666666664 -32.416875 40.15208333333333 -42.33270833333333 12.847916666666666 -10.190208333333333 22.16875 -13.545416666666666 28.24791666666667 -13.5625 0.09791666666666667 0.09812499999999999 0.23124999999999998 0.244375 0.39791666666666664 0.4514583333333333 0.39166666666666666 0.4875 0.9270833333333333 1.2752083333333333 1.5375 2.47625 2.6999999999999997 5.312291666666666 5.0375 14.944999999999999 5.877083333333333 29.519791666666663 1.6500000000000001 28.644999999999996 -2.8541666666666665 68.293125 -11.183333333333334 109.23166666666667 -8.283333333333333 40.72083333333333 -20.022916666666664 81.13541666666666 -32.00625 110.97500000000001 -6.0375 15.0375 -11.797916666666666 26.52916666666667 -16.75208333333333 33.89791666666667 -1.3666666666666667 2.03125 -2.5124999999999997 3.508333333333333 -3.4124999999999996 4.55 -3.6125 -1.0729166666666665 -8.685416666666667 -3.8833333333333333 -15.337499999999999 -10.166666666666666 -8.883333333333333 -8.391666666666666 -18.147916666666664 -20.7 -27.585416666666667 -35.55 -9.345833333333333 -14.706249999999999 -18.264583333333334 -30.9375 -26.7375 -46.69791666666666 -1.3979166666666667 -2.6020833333333333 -2.7916666666666665 -5.204166666666667 -4.175 -7.791666666666666 -4.477083333333333 -8.360416666666666 -8.864583333333332 -16.55625 -13.039583333333333 -23.997916666666665Z" stroke-width="20.8333"></path>
</svg>